{"title":"Beck - Live at iTunes Festival 2014 720p HDRip x264 AC3 5.1 titl","uid":12114386,"size":1302753089,"categoryP":"video","categoryS":"hd___movies","magnet":"?xt=urn:btih:aa217e87609bdac8da8a2ca28e73cdad3bf29aca&amp;dn=Beck+-+Live+at+iTunes+Festival+2014+720p+HDRip+x264+AC3+5.1+titl&amp;tr=udp%3A%2F%2Ftracker.openbittorrent.com%3A80&amp;tr=udp%3A%2F%2Fopen.demonii.com%3A1337&amp;tr=udp%3A%2F%2Ftracker.coppersurfer.tk%3A6969&amp;tr=udp%3A%2F%2Fexodus.desync.com%3A6969","seeders":0,"leechers":0,"uploader":"movieZ.freak","files":3,"time":1436649894,"description":"SOURCE: Beck - Live at iTunes Festival 2014 WEB-DL 1080p\n\nBeck - iTunes Festival @The Roundhouse, London 02/09/14\n\n\n &lt;a href=&quot;\nhttps://en.wikipedia.org/wiki/Beck&quot; rel=&quot;nofollow&quot; target=&quot;_NEW&quot;&gt;\nhttps://en.wikipedia.org/wiki/Beck&lt;/a&gt;\n\n\n\nSCREENSHOTS:\n------------------- &lt;a href=&quot;\nhttp://someimage.com/kEBO&quot; rel=&quot;nofollow&quot; target=&quot;_NEW&quot;&gt;\nhttp://someimage.com/kEBO&lt;/a&gt;\n\n\n\nSETLIST:\n--------------\n01 - Devil's Haircut\n02 - Black Tambourine\n03 - Loser\n04 - Novacane\n05 - One Foot in the Grave\n06 - Hell Yes\n07 - The New Pollution\n08 - Think I'm in Love / I Feel Love (Donna Summer cover)\n09 - Blue Moon\n10 - Lost Cause\n11 - Heart Is a Drum\n12 - Wave\n13 - Girl\n14 - E-Pro\n\nEncore:\n--------------\n15 - Sexx Laws\n16 - Debra\n17 - Where It's At (With Band Introduction, The Rolling Stones - Miss You, Rod Stewart - Do Ya Think I'm Sexy snippets)\n\n************************************\n\n- Duration: 1h 21mn\n\n- Nominal bit rate: 1655 Kbps\n\n- Res: 1280 x 720\n\n- AR: 16:9\n\n- FPS: 23.976 fps\n\n- Audio: AC3, 6 channels, 448Kbps\n\n************************************\n\nGeneral\n-------------\nFormat : Matroska\nFormat version : Version 4 / Version 2\nFile size : 1.20 GiB\nDuration : 1h 21mn\nOverall bit rate : 2116 Kbps\nEncoded date : UTC 2015-07-11 18:38:27\nWriting application : mkvmerge v8.1.0 ('Psychedelic Postcard') 64bit\nWriting library : libebml v1.3.1 + libmatroska v1.4.2\n\n\nVideo\n----------\nFormat : AVC\nFormat/Info : Advanced Video Codec\nFormat profile : &lt;a class=&quot;__cf_email__&quot; href=&quot;/cdn-cgi/l/email-protection&quot; data-cfemail=&quot;125f737b7c525e263c23&quot;&gt;[email&amp;#160;protected]&lt;/a&gt;&lt;script data-cfhash='f9e31' type=&quot;text/javascript&quot;&gt;\n/* &lt;![CDATA[ */!function(){try{var t=&quot;currentScript&quot;in document?document.currentScript:function(){for(var t=document.getElementsByTagName(&quot;script&quot;),e=t.length;e--;)if(t[e].getAttribute(&quot;data-cfhash&quot;))return t[e]}();if(t&amp;&amp;t.previousSibling){var e,r,n,i,c=t.previousSibling,a=c.getAttribute(&quot;data-cfemail&quot;);if(a){for(e=&quot;&quot;,r=parseInt(a.substr(0,2),16),n=2;a.length-n;n+=2)i=parseInt(a.substr(n,2),16)^r,e+=String.fromCharCode(i);e=document.createTextNode(e),c.parentNode.replaceChild(e,c)}t.parentNode.removeChild(t);}}catch(u){}}()/* ]]&gt; */&lt;/script&gt;\nFormat settings, CABAC : Yes\nFormat settings, ReFrames : 4 frames\nCodec ID : V_MPEG4/ISO/AVC\nDuration : 1h 21mn\nBit rate : 1655 Kbps\nWidth : 1280 pixels\nHeight : 720 pixels\nDisplay aspect ratio : 16:9\nFrame rate mode : Constant\nFrame rate : 23.976 fps\nColor space : YUV\nChroma subsampling : 4:2:0\nBit depth : 8 bits\nScan type : Progressive\nBits/(Pixel*Frame) : 0.075\nStream size : 942 MiB (77%)\nWriting library : x264 core 142\nEncoding settings : cabac=1 / ref=4\nDefault : Yes\nForced : No\n\n\nAudio\n-----------\nFormat : AC-3\nFormat/Info : Audio Coding 3\nMode extension : CM (complete main)\nFormat settings, Endianness : Big\nCodec ID : A_AC3\nDuration : 1h 21mn\nBit rate mode : Constant\nBit rate : 448 Kbps\nChannel(s) : 6 channels\nChannel positions : Front: L C R, Side: L R, LFE\nSampling rate : 48.0 KHz\nBit depth : 16 bits\nCompression mode : Lossy\nStream size : 260 MiB (21%)\nTitle : Surround\nLanguage : English\nDefault : Yes\nForced : No","torrent":{"xt":"urn:btih:aa217e87609bdac8da8a2ca28e73cdad3bf29aca","amp;dn":"Beck+-+Live+at+iTunes+Festival+2014+720p+HDRip+x264+AC3+5.1+titl","amp;tr":["udp%3A%2F%2Ftracker.openbittorrent.com%3A80","udp%3A%2F%2Fopen.demonii.com%3A1337","udp%3A%2F%2Ftracker.coppersurfer.tk%3A6969","udp%3A%2F%2Fexodus.desync.com%3A6969"],"infoHash":"aa217e87609bdac8da8a2ca28e73cdad3bf29aca","infoHashBuffer":{"type":"Buffer","data":[170,33,126,135,96,155,218,200,218,138,44,162,142,115,205,173,59,242,154,202]},"announce":[],"urlList":[]}}